<?xml version="1.0" encoding="UTF-8"?><svg id="_레이어_2" xmlns="http://www.w3.org/2000/svg" viewBox="0 0 25.67 25.67"><defs><style>.cls-1{fill:#ffde00;}.cls-2{fill:#3c2321;}</style></defs><g id="_x3C_레이어_x3E_"><path class="cls-1" d="M25.67,12.84c0,7.09-5.75,12.84-12.83,12.84S0,19.92,0,12.84,5.75,0,12.83,0s12.83,5.75,12.83,12.84"/><path class="cls-2" d="M12.84,6.19c-3.84,0-6.94,2.88-6.94,6.42,0,2.62,1.1,3.87,2.6,5.01h0v3.08c0,.14.16.23.28.14l2.63-1.96.06.02c.44.08.9.12,1.37.12,3.83,0,6.94-2.88,6.94-6.42s-3.11-6.42-6.94-6.42"/></g></svg>