<?xml version="1.0" encoding="UTF-8"?>
<svg id="_레이어_2" xmlns="http://www.w3.org/2000/svg" viewBox="0 0 4.5 7.41">
    <defs><style>.cls-1{fill:#585858;}</style></defs>
    <g id="_x3C_레이어_x3E_">
        <path class="cls-1" d="M3.66,0H.85c-.47,0-.85.38-.85.85v5.71c0,.47.38.85.85.85h2.81c.47,0,.85-.38.85-.85V.85c0-.47-.38-.85-.85-.85ZM2.25,7.05c-.24,0-.44-.2-.44-.44s.2-.44.44-.44.44.2.44.44-.2.44-.44.44ZM3.89,5.19c0,.16-.13.29-.29.29H.9c-.16,0-.29-.13-.29-.29V.98c0-.16.13-.29.29-.29h2.71c.16,0,.29.13.29.29v4.21Z"/>
    </g>
</svg>