<?xml version="1.0" encoding="UTF-8"?><svg id="_레이어_2" xmlns="http://www.w3.org/2000/svg" viewBox="0 0 135.21 93.98"><defs><style>.cls-1{fill:#fff;}</style></defs><g id="_레이어_1-2"><path class="cls-1" d="M11.87,4.92c-.44,2.28-1.29,4.98-1.5,7.2,1.78,1.11,3.4,2.58,5.12,3.4.38.53,1.88.47,1.31,1.23l-.33.7c-.47.12-1.26,0-2.04-.12-.91-1.64-2.73-.88-3.64-2.52-.62-.47-1.09-.35-1.42.35.31.23.14.59-.02.94l-.33.7c.07.29.31.23.31.23-.09.64-.18,1.29-.52,1.99l.07.29c-.4.41-.11,1.58-1.21,1.23-.51-2.05.25-4.1.29-5.97.02-.94,1.63-2.58-.17-2.75.64-.47,1.35-.64,1.3-1.87.17-.35.02-.94.66-1.41-.48.12-.55-.18-.62-.47.47-.12.64-.47.81-.82.18-1.29.61-2.64,1.34-3.75l.6,1.41ZM18.27.23c.14.59.69.76.6,1.41,0,0-.31-.23-.24.06.86.41,1.14,1.58,1.36,2.46-.17.35.22.88.29,1.17l.14.59c-.17.35.45.82.05,1.23.86.41.05,1.23.84,1.35,1.83-.76,8.54-6.39,10.36-7.15l-.16.35.31.23c.17-.35-.05-1.23.57-.76l.07.29s-.24.06-.17.35c-.24.06,0,0,.07.29-.48.12-1.28.93-1.92,1.4-.73,1.11-7.19,5.75-7.99,6.56,0,0,.07.29.31.24-.64.47-.73,1.11-1.06,1.82.69.76-.35,1.64.58,2.34-.49,1.05.43,1.76.49,2.99l-.24.06c.38.53,1.97,5.9,2.04,6.19q.07.29.38.53v.47s-.09.17-.09.17c-.71.18-1.02-.06-1.64-.53.17-.35.4-.41.09-.64l-.31-.23c-.05-1.23-2.19-5.43-2-6.72l-.25-.35c.24-.06.09-.64.02-.94l-.31-.24c.26-.99-.51-2.05-.25-3.04-.22-.88-.67-1.7-.34-2.4-.6-1.41-.41-2.69-1.08-4.39.17-.35-.38-.53-.14-.59.11-1.58-2.2-3.81-.68-4.8l.31.23Z"/><path class="cls-1" d="M32.5,8.16c.27.19.14.5-.27.61.75.33-.54,1.22-.13,1.92l-.27.61.07.25c.07.25-.34.36,0,.81-.07.56-.6.97-.47,1.47l.27.19-.41.11c.07.25.14.5.14.5l-.33,1.17.07.25c-.47.67.14,1.31.14,2.11.54.39,1.01-.28,1.42-.39.47-.67,1.35-.64,2.09-1.11.47.14,1.08-.03,1.49.67q-.2.05-.34.36l.27.2c-.2.06-.34.36-.27.61s.27.2.27.2c.07.25-.41.11-.54.42.47.14,0,.81.55,1.2-1.22.33.34,1.25-.6,1.78l.54.39c-.74.47.07,1.06-.4,1.72.27.19-.13.31-.07.56l.27.19c-.13.31-.74.47-.4.92.47.14.14.5.21.75-.2.05-.13.3-.13.3l.27.2c-.13.3-.06.55,0,.81,1.08-.03,1.62-1.25,2.56-1.78,1.89-1.86,3.84-3.48,6-5.15.08-.11.88.03.61.64,0,.81-.88.78-1.14,1.39-.2.06-.41.11-.34.36l-.54.42c-.1.3-.24.83-.67.72.07.25-.13.31-.07.56-.81.22-1.01,1.08-1.95,1.61-.54-.39-.33,1.17-.88.78-.13,1.11-1.01.28-1.01,1.09-.47.67-1.89.25-1.89,1.06-1.17.63-1.59.7-1.62.44-.14-.5-.27-.2-.47-.14l-.13.31s.2-.05.27.2l-.4.11c0-.81-.07-1.06,0-1.61-.21-.75-.14-1.31-.14-2.11.54-.42-.48-.95.26-1.42-.68-.08-.14-.5-.07-1.06-.14-1.31.39-2.53-.15-3.72.54-.42-.08-1.86.53-2.03-.14-.5-.75-.33-.95-.28-.07.56-.54.42-.67.72l-.47-.14-.08.24-.26.12-.27-.19c.07.25-.4.92-.81,1.03l-1.08.03c.13-.31.41-.11.41-.11.2-.05.13-.31.13-.31-.07-.25-.34-.45-.54-.39l-.2.06.27.2c-.2.06-.47-.14-.68-.08-.14-.5.2-.86.13-1.11-.2.06-.07-.25-.14-.5l.47-.67-.27-.19.27-.61c-.2.05-.38-.21-.34-.45.51-2.25.76-4.51,1.12-6.23l.47-.67-.27-.19.13-.31c-.68-.08-.88.78-1.55.7-.07.56-1.01.28-1.08.83-.47-.14-.74.47-1.08.84-.14-.5-.32-.36-.54-.39-.3-.05-.63-.19-.75-.33-.34-.45.07-.56.2-.86,1.89-1.06,3.84-2.67,6.21-2.78q.27.2.34.44c-.75-.33,0,.81-.33,1.17ZM41.48,4.74c.08.24.28.18.48.11-.12.31.37.42.37.42-.4.14.25.74-.15.87l.37.42-.12.31c.4-.14-.03.56.45.67v.23s.17.26.17.26c-.56-.36.2.71.1,1.47.62,1.16.85.99,1.49-.09.65-.82,1.31-1.36,1.72-1.68.64-.4,1.94-1.8,3.72-.49-.03.56-.63.76-.66,1.32-.56-.36-.92.13-1.3.31-.63.21-1.05.72-1.32,1.13l-.57.29v.32s-.25.36-.25.36c-.83.92-.9,1.27-1.34,1.92l.46.48c.17.49-.43.69-.15.87-.79.27-1.42,1.03-2.19.75.06-1.12-.56-2.28-1.17-3.44l.31-.38c-.48-.11-.53-.91-.62-1.16.03-.56-.42-1.23-.78-1.65.2-.07.23-.63.43-.7-.37-.42-.31.38-.68-.04.2-.07.12-.31.31-.38-.08-.24-.2.07-.48-.11.2-.07.12-.31.43-.69-.28-.18-.4.14-.48-.11l.05-.06-.14-.18c-.28-.18-.05-.8-.53-.91-.28-.18.03-.56-.14-1.05,1-.34,1.56.02,2.44,0,.28.18-.03.56-.23.63ZM48.47,19.02c.73.68,1.77.53,2.54,1.47l-.17.29c.66.17.39,1.26.63,1.48-.42.06-.38.32-.34.57.21-.03.62-.09.49.45q-.04-.26-.24-.23c.04.26-.38.32-.55.6.21-.03.62-.09.7.43-.45-.2-.31.83-.93.92l.24.23c-.45-.2-1.21.43-1.52,1.26-.62.09-1.49-.05-2.15-.22,0,0-.49-.46-.11-.77,0,0-.21.03-.24-.23.17-.29.62-.09.8-.37-.24-.23-.83.12-.94-.65.97-.66.5-2.43,1.51-2.83-.07-.51-.49-.45-.73-.68,0,0-.04-.26.17-.29-.62.09-.94-.65-1.39-.85.1-.8.52-.86.93-.92.28.48.87.14,1.32.34ZM48.74,23.91s.55-.34.62-.39c.1-.06.33-.4.35-.53,0,0,.01-.39-.05-.6-.06-.21-.44-.37-.48-.37-.18-.02-.32.22-.39.49,0,.04-.04.97-.05.92v.48Z"/><path class="cls-1" d="M55.31,2.22l.04.26c-.59.34.11.77-.06,1.06-.27,1.09.44,3.08-.04,4.2l.18,1.29c.21-.03.24.23.45.2.97-.66,2.14-1.35,3.11-2.01,1-.4,1.76-1.03,2.91-.41-.13.54-1.04.15-1.14.95-.42.06-.8.38-1.38.72l-.17.29-.04-.26c-.34.57-.97.66-1.35.98l.45.2c-.66-.17-1,.4-1.42.46-.1.8-1.25.18-1.31,1.23.28.48-.31.57-.28,1.04-.04-.04-.09-.12-.2.07l-.42.06c-.9-.4-3.14,1.29-4.05.89-.62.09-.97.66-1.66.23.69-1.14,2.18-1.09,3.11-2.01.21-.03,1.69-1.08,1.89-1.11l.17-.29c-.24-.23-.45-.2-.49-.46l.17-.29q-.21.03-.24-.23c.21-.03.38-.32.13-.54-.04-.26-.21.03-.21.03-.32-.74.51-.86.03-1.31-.04-.26-.53-.71-.15-1.03-.42.06.14-.54-.49-.46.59-.35-.14-1.03.27-1.09l-.24-.23.34-.57-.21.03c.51-.86-1.02-2.74.68-2.72.17-.29.13-.54.34-.57.45.2,1.17-.69,1.32.34-.38.32-.1.8-.06,1.06ZM58.98,16.47c.41-.1.31.44.59.66-.61.17-.23.86-.43.93l.27.18-.17.29c.07.25.28.22.32.48-.86-.05-.09,1.37-.84,1.82-.17.33-.43.94-.71.75-.21.03.42.68-.27.61l-.07-.25.13-.33c-.72-.33-.7,1.58-1.52.74-.1.54-.41.1-.55.38l-.18-.5c-.62-.87.26-1.65.05-2.67.3-.61.33-1.44.36-2.24.23-.9.46-1.77.32-2.27.27-.61,1.18-1.39,1.53-.7.21.76,2.22.95,1.18,2.11ZM57.27,22.87c-.2.07-.78.46-1.19.6.17-.33.23-.38.56-.56l-.05-.12c.21.01.57-.21.81-.51.13-.11.16.37-.13.59ZM57.47,16.77c-.28.78-.98,1.84-.58,1.92-.1.32-.17.81-.16,1.11l.2-.07-.13.32c.2-.07.24.19.44.11.1-.54.2-1.12.46-1.72-.11-.51.23-.86.2-1.12-.13-.42-.41-.42-.43-.55ZM57.83,20.82c.2-.07.48.15.61-.17l.53-.25-.43-.03-.71.45ZM64.99,3.43l.44.11s-.17.07-.13.33l.2-.07-.54.43.65.08c-.54.43-.02.83.05,1.09.27.18-.4.93-.09,1.37.45.94.08,1.3.46,2.03-.34.35.18.76.25,1.01l.4-.14c.77-1.29,2-1.64,2.84-2.67l.74-.5s-.07-.25-.31-.44c.4-.14-.14-.46.23-.64l-.3-.39c.5-.73-.59-.66-.08-1.34-.07-.21-.1-.47-.31-.44l.33-.4c-.48-.11-.3-.39-.37-.65.61-.22,1.83-.57,2.42.09q-.21.03-.41.1.24.19.45.16l-.34.35c.41-.1.48.15.51.36.07.25-.54.43-.23.9.07.25.27.18.48.11.11.51-.17.33-.3.65l.2-.07c-.27.61-.09,1.37.09,2.13.07.25-.07.53-.03.79.01.83.03.96.08,1.34l.32.48-.41.1.24.19.21-.03c-.14.28.21.71-.13,1.11.72.34-.03.79.29,1.27.17.72.56,1.45.26,2.06l.27.18c.07.25-.34.35-.09.58l-.14.28c.28.22.39.73.29,1.27l-.2.07c.31.44.79.59.69.86-.2.07-.31-.17-.4.14.2-.07.18.76.58.62l-.17.33.14-.02c-.13.06-.1.28-.27.34.27.18.2-.07.48.11-.16.33-.2.07-.4.15-.21.03.1.47.31.44.04.26-.41.1-.34.35l-.27-.18.16-.11c-.33-.35-.77.28-.84.03.09-.58.81-.25.71-.76l-.41.1c-.07-.21-.1-.42-.27-.44.34-.09.03-.53.44-.67-.44-.11-.58.17-.99.27l-.07-.21c.13-.32.06-.58.4-.93l-.75.19s.09-.1.07-.27c-.24-.23-.35-.74-.42-.99l-.07-.25.28.22.2-.07-.58-.57.2-.11c.13-.32-.48-.11-.38-.65q.2-.12.13-.37s-.23-.14-.3-.39c.12-.37.47.06.53-.47l-.24-.19-.17.29c-.14-.72-.52-1.41-.29-2.32l-.14-.24-.1-.25.04-.22c-.2.07-.18-.76-.05-1.13l-.07-.51.2-.07c-.78-.54-1.01.36-1.42.46-.09.58-.41.1-.71.71.41-.1.07.25.07.25l-.2.07c-.13.33-.23.86-.43.94l-.24-.19c-.17.29.55.62.1.47l-.2.07c-.09.58-.61,1.22-.83,1.86l.2-.07-.3.61s.07.25.28.22c-.17.29-.3.61-.44.89.24.23.32.48.39.73-.21.03-.17.29-.1.54l.21-.03c-.1.54.15,1.55.46,1.99l-.33.4.04.26-.21.03c-.41.1-1.06.02-1.53-.05.98-.58-.42-.99.13-1.37-.21.03-.39-.73-.01-1.09-.2.07-.34-.43-.59-.66-.14-.46.34-.35.47-.68l-.44-.11c.17-.07-.03-.21-.07-.25.47-.2-.31-.96-.18-1.55-.21.03-.18-.76-.42-.99l.34-.35-.27-.18-.04-.26c-.48-.15.23-.86-.25-1.01.17-.33.37-.36.09-.58.1-.54-.58-.62-.25-1.01.03-.79-.46-1.99.01-2.67-.41.1-.11-.51-.38-.69l.29-.7-.4.19c.33-.4-.18-.76.26-.65-.31-.44-.28-1.23-.26-2.06.3-.65,1.56-.75,1.94-.06-.54.43-.02.83-.57,1.26ZM74.11,18.61s.03-.05.06-.05l-.06.05Z"/><path class="cls-1" d="M8.36,30.14c-.51.38-.89-1.05-1.43-.37.02.35.3.35.55.4.37,1.35,1.44-.07,1.83,1.71h-.32c.07.73.56.71.6,1.01-.85.73-.19,1.38-.72,2.15l.24-.03c0,.31-.52.34-.21.73-1.1.99-.47,2.43-1.85,3.41-.81,1.03-2.19,2.06-3.6,1.03-.33-.35-.32-.74-.64-1.04-.61-1.05-.08-2.83-.15-3.82.23-.64.47-1.68,1.04-2.42l-.05-.34.28-.3c-.89-1.05.53-1.47.76-2.16,1.06-1.02,3.06-2.35,3.94-.64.26.36-.3.39-.26.69ZM6.83,41.31c.25.27.05.61.05.61,0,0,.04.3.08.56-.25,0-.24.3-.24.3.04.3.21.01.21.01.29.27.08.6.33.57l-.46.28.5.28-.21.29.26.31v.7c.03.26.28.31.29.57l-.16.9c.42,1.47.11,3.52,1.35,4.04,2.33-.77,4.33-1.66,6.62-2.73l1.2.22c-.49.51-.82.99-1.52,1.26-.45.33-1.15.38-1.14.68-.65.92-1.89.4-2.01,1.55-1.1.5-1.91.49-2.75,1.09-.44.63-.94.09-1.39.68-.7-.21-.86.69-1.56.75l.17-.33c-.46.02-3.85,1.5-4.07,1.23l-.48.33c.04.3.29.31.5.28-.66.62-.79-.81-1.44-.19l.23-.34c-.53-.23-.68.66-1.18.12-.31-2.93,5.71-2.37,6.51-3.93-.25-.53.36-1.19-.14-1.46l-.24-1.45.1-.28c-.29-.57-.38-1.17-.22-2.06l-.02-1.4s-.24.03-.25-.27l.2-.34c-.29-.27-.04-.56-.04-.56-.08-.6.08-1.45.03-2.06l.89-.21ZM7.02,31.64l-.72-.34c-.98.36-.93,2.4-1.18,3.66-.39.49.07,1.21-.22,2.21-.02.35-.3,1.61.33,1.61l-.3.39c1.39-.46,1.31-2.5,1.9-3.33-.02-.39-.09-1.65.63-2.05,0-.44-1.02-.47-.4-1.3l-.35-.48.3-.39Z"/><path class="cls-1" d="M29.4,38.85c-.66-.65-.37.62-.85.25-1.25-.09-1.43,1.16-2.72,1.04l.26.36c-1.1.24-2.35.42-3.18,1.02-.23-.36-.42.28-.63.26-.85.21-1.91.49-2.5,1.05-.64-.04-1.04.89-1.9.79-.18,1.25-1.29-.08-1.64,1.15l-.75.41c-.43-.07-.86.21-1.28.22.09-.84-.19-1.11.22-1.69.95-1.05,1.58-1.36,2.72-2.04,1.9-.79,3.98-1.87,6.08-3,.82-.2,1.7-.2,2.55-.71,1.46-.21,2.46-1.09,3.78-.05.23.36.02.65-.15.94ZM16.62,30.22c.28.48.42-.28.46.24,0,0,.07.51-.18.24l-.17.29c.21-.03.07.78.5,1.02-.03.05-.17.29-.14.5-.34.83.43,2.04-.62,2.14.28.48.42-.02.84-.07-.14.54-.34.83-.1,1.06-.21.03-.11.19-.17.29,2.48-.48,4.66-3.8,7.4-1.96.04.26.07.78-.35.79l.28.48c-1.01.62-2.48.48-3.41,1.62-.24-.23-.38.58-.59.56-.84.07-1.58.57-2.38.9-.93.39-1.84,0-1.81-.53l.21-.25-.46-.24c.21-.03.17-.29.17-.29-.04-.26-.24-.23-.24-.23-.04-.52-.32-1,.1-1.06-.45-.46-.11-1.29-.43-2.04-.25-.49,1.01-.58.14-.76l-.04-.26c-.04-.26.17-.55.31-1.09-.21.03-.24-.23-.45-.46.34-.57-.64-2.05.65-1.62.28.48.45.2.7.69l-.21.03ZM27.17,45.28l-.17.29c-.25-.27-.1,1.02-.76.85.04.26.07.77.28.75l-.77.59c.45.46-.31,1.05-.45,1.85l.24.23c-.21.03-.62.09-.8.33l.25.27c-.42.28-.73,1.06-.7,1.58-.21.03-.55.6-.76.85l.67.21c-.38.32-1.05.1-1.15,1.17,1.71.11,3.62-1.91,4.93.57l.04.26q.21.01.46.24c.04.52-.97.88-.31,1.31-.21.03-.17.29-.38.32l-.21.03c.24.23-.76.85-.28,1.31-.17.29-.45-.2-.59.3,0,0,.21.27-.13.8l.04.26-.21.29.04.26c-.17.29-.67-.21-.56.56,0,0,.25.49.04.52-.17.29-.34.57-.56.82l.25.27-.59.3c.95.96,2.31-.2,3.28-.81,1.5.09,2.19-1.27,3.7-1.13.67.21,1.19-.61,1.85-.44-.17.29-.38.32-.55.6l.21.23c.04.26-.42-.25-.39.27-.38.31-.55.86-1.15.9-.21.29-.63.05-.38.54l-.21.03c-.05.4-.4.67-.76.85-.45-.46-1.05.1-1.25.13-.21-.01-.59.3-.56.56-.24-.23-.39.27-.59.3-.84.07-1.68.41-2.51.49-.07-.77-1.05-.16-1.57-.87l-.42.02c.13-.8-.11-1.29.2-2.08.31-1.09.82-2.17.92-3.49.35-.53.94-.88.86-1.65.21.01.18-.24.39-.27,0-.26-.21-.23-.24-.49l.21-.03c-.53-1.02-.8.33-1.3-.17l.04.26c-.88-.18-1.39.94-2.09.21-.28-.44-.54.16-.76.11-.04-.04-.22-.32.06-.58-.42.06-.63-.22-.88-.44l-.04-.26.21-.03c.03-1.8.89-3.45,1.75-5.36.35-.79.69-1.63,1.21-2.44-.21-.23-.63-.22-.84-.19l-.04-.26c-.21.03-.42.06-.38.32-.59.56-1.85.65-2.73.47-.1.8-.8.33-1.46.16l-.5-.76c.06-1.58,1.43-.64,1.95-1.46,1.88-.44,3.34-2.39,5.51-2.09.25.53.46.5.67.47.49.5.7.73.74.99ZM21.92,56.72s-.03.05-.07,0h.07Z"/><path class="cls-1" d="M44.21,41.14l.24.45-.39.23.39.03c-.22.47-.96.22-1.18.65-.17.02-.6,0-.77.28l.17.24c-.36.22-.53.77-1.11.42-.53.47-1.36.11-1.76.82l-.61.17-.27.34-.53.03c-.21.03-.6.48-1.2.52-.36.18-.97.18-1.32.67l-.22-.28c0,.26-.2.55-.39.75-.57.21-.08-.03-.47.15-.31.04-1.58.31-.81.55-.39.23-.79-.59-1.18-.32l.24.23c-.21.03-.81.03-1.24-.26.36-1.93,2.11-1.87,3.29-2.78,1.5-.65,2.41-1.43,4.37-2.1,1.39-.46,2.95-1.12,4.38-1.06l.35.26ZM32.39,36.84c-.28-.48.14-.54.31-.83l-.04-.26c.14-.54.55-.6.69-1.15.62-.09,1.39.85,1.67-.24.8-.37,1.66-.23,2.02.76q.04.26-.13.54l.45.2-.17.29.25.23s-.38.32.07.51c-.38.32-.03,1.31-.61,1.66-.14.54-.66-.17-.8.37.24.23.62-.09.87.14-.14.54-.86,1.43-1.45,1.78-.76.63-1.65,1.81-2.84.93-.21.03-.87-.14-.94-.65q-.21.03-.24-.23c-.04-.26.21-.03.14-.54l-.21.03c-.07-.51.44-1.37.16-1.86.18-.46.23-1.34.82-1.69ZM33.65,38.23c-.62.09.15,1.03-.69,1.15.24.23.42-.06.49.46.59-.34,1.38-.72,1.69-1.55.34-.57.48-1.12.82-1.69-1.15-.62-1.8.78-2.32,1.64ZM43.47,36.03c.41,1.87.02,1.92.66,3.14-.19.16-.13.59-.23,1.12l.21-.03c.07.51.38.91.04,1.52l.24-.03c.09.42-.15.46-.2,1.08.07.51.44.37.54.8-.2.07-.3.61-.21,1.03q.25.49.35.96c-.21.03-.54.2-.56,1.3.19-.16.44.33.7.69v1.05c-.26-.4.05,1.52-.49.73-.09.58-.2,1.08-.57,1.22-.07-.51-.34.13-.54-.84-.07-.51.36-.18.2-1.12-.19.16-.36.18-.53-.75.16-.11.36-.23.56-.26-.26-.36-.58-.84-.71-1.78q.17-.03.3-.65c-.47-.33-.64-1.26-.54-1.8-.28-1.49-.42-3.48-.6-4.5l-.23-.36c.12-.37.13-.06.14.02,0,0,.02-.13.08-.4-.28-1.49-.68-2.83-.8-4.43l.21-.03-.27-.4.1-.54-.38-.95c-.07-.51.34-.62.51-.64.74.72,1.35,1.03,1.89,2.88-.37.14-.1,1.02.14,1.99Z"/><path class="cls-1" d="M56.18,28.57c-.93.92-2.35,1.38-3.32,2.04-.73.1-1.2.74-1.86.83-.1.01-.24.03-.35,0l-.36.44c-.1.01-.22-.06-.34-.17-.31.83-1.42.46-1.97,1.06-.03.05-.09.1-.16.11-.28.04-.74-.24-.92-.22-.4-.29-.51-.58-.34-.87.55-.6,1.63-.49,2.18-1.09,2.18-1.1,3.3-1.43,5.2-3.01.11.03.25,0,.35,0,.73-.1,1.36-.63,2.06-.73.24-.03.69.34.77.68-.62.09-.1.8-.93.92ZM62.94,28.36c.04.3-.11.98-.34,1.32l.31.22s-.28.04-.22.42c-.2.6,1.41.68.49,1.46l-.24.34c.28-.04.57.27.41.9l-.28.04c.09.64.57.27.61.57,0,0-.48.37-.16.63l.04.3c.24-.03.2-.33.44-.37.04.3-.15.68-.15.68.57.53,1.46,1.06,2.13.31.29-.22,1.27-.79,1.65-1.06,1.25-.7,2.51-1.23,3.97-.43-.44.67-.8,1.38-1.59,1.49-.84.29-1.51.61-1.56.74-.42.28-.87.82-1.21.91-1.48.56-2.96,1.07-4.64.44-.1-.68-1.35-.77-1.15-1.15-.64-.52,0-1.57-.5-1.81l.2-.33c-.24.03-.6-.22-.76.11-.68.71-.78,1.99-1.45,2.74-.35,1.27-1.03,1.72-1.42,2.69.38.91-.91.78-.5,1.99-1.01.14-.79,1.68-1.55,1.79-.1,1.28-.83,1.65-1.22,2.4-.66,1.05-1.08,1.38-2.12,1.52-.37-.6-1.42-.76-1.03-1.78-.28-.22-.13-1.64-.46-1.46l-.33-.3c.28-.04.24-.34.24-.34l-.04-.3c.16-.63-.65-.87-.22-1.54-.28.04-.04-.3-.09-.64l-.22-1.54c.48-.33-.45-1.16.3-1.61-.6-.53-.18-1.24-.26-1.84.21-.03.07-.97.03-1.27.47-.72.05-1.62.77-2.03.28-.04,1.21-.43,1.62.47.35.52-.28.04-.41.63-.04-.3.62.87-.18.99.61.57-.92.78-.07,1.28-.12.67-.03,1.27-.27,1.61.28-.04.33.3.36.56-.28.04.1.68-.46.76.04.26.59.18.68.78l-.28.04.37.6-.56.08c.04.3.32.26.65.56.21-.03-.56.08-.23.34-.19.64.57.53.17,1.2,0,0-.31-.22-.28.04.02.17.57.27.69.86.05.34.16.41.16.41l.38.16c2.8-4.2,4.48-8.84,6.88-13.64l.31-.04c-.04-.26-.48-1.16-.21-1.5.41-.36.87-1.08,1.72-.55.21-.03.76-.11,1.05.16ZM65.96,44.18l.24.23c-.21.03-.24-.23-.42.06.45.2.77.94,1.05,1.42.04.26-.21.03-.17.29.04.26.24.23.24.23l-.17.29.42-.06c-.76.63.35,1-.37,1.89-.42.06-1.01.4-.93.92l.66.17-.66.36-.21-.49c-.17.29-.83.12-.51.86.28.48.76-.63.9.4-.38.31-1.18.69-1.84.52-.42.06-.87-.14-1.29-.08-.45-.2-.83.12-1.32-.34.13-.54.42.25,1.04-.15-.83.12-1.18-.88-1.81-.79-.07-.51.59-.35.31-.83,0,0-.42.06-.49-.45.21-.03.17-.29.42-.06.07.51.66.17,1.08.11,0,0,.17-.29.38-.32l.24.23c-.59.34.32.74-.1.8.24.23.7.43,1.08.11.2-1.6,1.13-2.52.49-4l-.49-.46.17-.29c-.42.06-.52-.71-.9-.39-.38.32-.59.34-.97.66l-.24-.23s-.21.03-.17.29c.24.23.62-.09.87.14l-.34.57c.24.23.59-.35.8-.38-.14.54-.55.6-.69,1.15l.49.46-.42.06.45.2c-.59.34-.61,1.66-1.31,1.23-.28-.48-.66-.17-.53-.71l.38-.32-.45-.2c.17-.29.14-.54.06-1.06q.21-.03.17-.29l.24.23.17-.29c-.24-.23-.45-.2-.49-.46.62-.09.06-1.06.41-1.63.42-.06.61-1.66,1.17-.69.86-1.43,2.19.48,3.34,1.1Z"/><path class="cls-1" d="M75.4,33.17c.3.39,1.29-1.14,1.33.16,1.51.92,2.48,2.27,3.76,3.31-.17.29-.41.1-.37.36.48.15,1.09-.07,1.47.66,0,0-.28-.22-.21.03l.32.48c-.21.03-.62.13-.78.5.3.39.57-.47.92.26-.3.35-1.34-.2-1.57-.39-.41.1-1.32.89-1.54-.13,0,0-.21.03-.24-.23.1-.54.97.61,1.23-.3l.13-.33c-.48-.15-.6.22-.74.5-.41-.68-.78.46-1.34-.2l.2-.07c-.3-.13-.34-.39-.58-.62,0,0-.11-.51-.31-.44-.48-.15-.89-.05-.93-.31l-.07-.25c-.4.14-.31-.44-.51-.36l-.07-.25-.24-.23.21-.03c-.52-.41-.9-.09-.99.49-.26.65-.12,1.41-.67,1.8l.24.18c-.3.61-.88,1.83-.83,2.91l.24.19c-.13.32-.5.68-.43.93-.41.1-.85.99-1.4.63.37-.4-.11-.51.1-.54.09-.62.4-.14.58-.43-.07-.25-.49-.19-.52-.45.21-.03-.03-.21.17-.29l.47-.64c-.11-.51-.99-.51-.42-.99,0,0,.24.23.45.16.1-.54-.31-.44-.59-.66.17-.29.72-.67.92-.74-.52-.41.3-.65-.14-.76.33-.4-.14-.5,0-.79,0,0,.2-.11.16-.37l-.2.11c.09-.62.5-.68.67-1.01-.41-.68-.11-1.29.19-1.9l.2-.07c-.04-.26-.31-.44-.18-.76.2-.07.3-.61.58-.43.04.26.17-.02.17-.02-.17.02-.24-.23-.45-.16.47-.94.28-2.75,1.23-3.28.54-.43,1.09-.81,1.7-.98-.42,2.03-1.3,3.81-1.31,5.73ZM72.2,43.01l.19-.42h.6s-.79.42-.79.42ZM72.65,42.25s.17-.29.21-.03c-.04-.26.14.5-.21.03ZM75.34,33.96c-.24-.19-.3.35-.3.35l.41-.1-.11-.25ZM75.68,34.4s-.23.12.04.3l.07.21c.17-.33.41-.1.37-.36-.11-.51-.48-.15-.48-.15ZM75.97,35.67l.37-.1-.24-.23-.13.33ZM76.27,35.05c.2-.07.48.41.61-.17-.27-.18-.61.17-.61.17ZM76.96,36.22c.04.26.29-.17.65.08-.11-.51-.52-.41-.65-.08ZM90.87,47.75c.03.21-.27.08-.27.08-.46.76-1.56.75-1.62,1.84-.34.35-.78-.28-.9.39-.55-.14-.59.83-1.15.9-.52.29-1.02.8-1.71,1.16-.42-.2-.52.34-.87.38-.31.52-.55.08-.87.6l-.34.09.27-.56c-.58-.14-1.11,1.12-1.52-.27-.34.35-.66.62-.87.65-.27-.7.43-.98-.09-1.87l.43-.98-.07-.25c.1-.8.26-.91.1-2.07-.1-.69.21-.99-.01-1.35q.2-.07.38-.05c-.69-.86.22-2.43.24-3.31.08-.71.53-1.47,1.09-1.55.17-.07.55-.12.58.09v.26c.18.02.22.01.42-.06.03.21-.17.29-.17.29l-.24.3c-.11.5-.07-.03-.22.43l-.45.54c.24.23.24.45.42.2.1.68-.59.08-.46.76l.49-.07s-.13.1-.11.23l.2.19c-.17.02-.49.29-.45.54.03.21.27.66.06.69-.46.5.19,1.11-.26,1.87l.21-.03s-.18.24.07.47l.31-.05c-.17.07-.43.45-.12.41-.34.14-.22.95-.56.82.03.21.2.19.24.45l-.18.24c.41.12.56-.3.73-.36.24.67-1.04.67-.71,1.28.17-.07.21-.51.45-.33.99-1.01,2.41-1.21,3.45-2.11,1.25-.44,2.09-.99,3.16-1.67.34-.14.71-.23.93.31v.44ZM85.7,26.17c.27.14.2-.11.4-.14-.07.53.65.08.18.76.27.18.18.76.62.92l-.3.61c.07.25.48.15.34.43,0,0-.2.07-.41.1.11.51.73.38.62.92,0,0-.02.83-.19,1.12.07.25.18.02.21.01.04.26-.11.49.17.68l-.09.58.2-.07-.27.61q.24.23.28.48c.11.51-.16,1.12-.05,1.62q.2-.07.27.18l.04.26c-.24-.19-.2.07-.2.07l.24.19c.21.75-.41.89-.6,1,.2-.11.51.36.71.29.04.26-.09.58-.3.61.04.26-.05.88-.19,1.16-.54-.58-.36.44-.64.7.24-.08.54-.16.71-.45l.24.18c-.3.65-1.05,1.07-1.46,1.17l-.51-.36.21-.03c-.07-.25-.41.1-.52-.41.41-.1-.04-.26.09-.58.17-.03.23.14.27.18-.14-.5-.52-1.19-.15-1.55l-.27-.18.37-.36c-.21.03-.41.1-.45-.16.41-.1-.35-.48-.01-.83l.21-.03c-.11-.51-.42-.94-.39-1.78-.24-.18-.11-.51-.11-.51-.04-1.04-.6-1.71.11-2.46-1.02.27-.25-1.01-.69-1.13-.04-.26.4-.15.37-.4-.27-.14-.4.14-.4.14,0,0-.32-.48.1-.54l-.07-.25c-.69-.12.15-1.16-.5-1.24l.1-.54c-.21.03-.04-.26-.55-.4.47-.94,1.32-.89,1.83-1.57.4-.14.72.34.92.26.11.51-.85-.01-.5.72Z"/><path class="cls-1" d="M96.82,25.17c-.8.11-1.65-.42-2.08.29-.47.42-.61,1.4-.05,1.67.89.53.79,1.85,1.2,2.76l.05.34c.33.61.7,1.21.56,2.19-.01,1.66-1.24,2.49-2.48,2.97-.61-.57-1.51.56-1.97-.68-.05-.34-.34-.61-.38-.95l-.04-.3c-.05-.34.15-.68-.14-.98-.16-2.9,1.03-5.69,2.6-7.88.62-1.09,1.94-1.28,2.69.27l.04.3ZM94.49,29.43c-.28-.27-.18-1.29-.7-1.21-.43.72-.86,1.43-.77,2.07-.63,1.09.03,1.96-.4,2.68.7,1.21,1.04-.15,1.76-.56.23-.38-.14-.99.38-1.06l-.27-1.93ZM102.03,20.33c-.13.32-.37.1-.27.61.3-.35.76.15.84.67,0,0,.04.26-.14.24.11.51.46.46.32,1.05l-.11.23c.35-.05-.1.54.3.83l-.18-.02c.38.21.35,1,.39,1.26l-.35.31c.59.18-.23.86.53.71l.04,1.04-.24.03c-.21.03.04.26.04.52l.23.1-.08.19c.04.26.14.24.31.18l-.13.32-.18-.02-.14.28c.59.44-.02,1.09.61,1.53-.18.24-.07.75-.03,1.01.04.3-.34.35-.1.54l.18.02c.15,1.03.43,1.51-.01,2.4l.17-.07c.42.2-.44.63.18,1.02l-.51.38c.28.48.55-.12.59.14l-.44.89c.17-.02.37-.1.37-.1.07.25-.09.58-.27.61l.21.23q-.28.3-.73.1c-.2-.19.07-.75-.31-.7l-.17.02c.03-1.05-.6-1.44-.57-2.54l-.2-.19c.27-.61-.4-1.34-.33-2.09-.66-.69.37-1.14-.25-1.54-.51-.85,0-.57.06-.79.09-.36-.46-.5-.5-.76h.39c-.42-.26.09-.59-.39-1.05,0-.26-.04-.52.11-.76,0,0-.43-.25-.29-.53l.18-.24c-.07-.47,0-.7-.4-2.34.24-.04.3-.61.48-.64l-.35.05c.02-.4.22-.16.07-.53l-.17-.24c-.07-.21.17-.02.1-.28l-.42-.46c.11-.23.28-.3.48-.59-.28-.48-.69.62-.59-.18.18.02.11-.23.28-.56-.04-.26-.24-.18-.42-.2l.11-.19.37-.14c-.07-.51-.34.09-.41-.42.48-.37,1,.3,1.59.48l.2.19Z"/><path class="cls-1" d="M24.6,72.85c-.1.8-.89,1.17-.58,1.92-.55.6-.69,1.15-.79,1.95l.42-.06c-.14.54-.51.86-.44,1.37l.18,1.28c-.21.03,0,.44.07.73.04.04.42.46.57.75.25.23.66.17.87.14.61-1.66.64-2.97.59-4.8.34-.57-.56-.97-.18-1.29-.24-.23-.52-.71-.15-1.03-.04-.26.38-.31.59-.34.28.48.87.14.94.65.07.51.94.65.63,1.48.04.26.24.23.24.23.07.51-.42.06-.55.6l.62-.09c-.17.29.28.48-.14.54-.21.03.04.26.07.51-.55.6.22,1.54-.75,2.2l.49.46c-.21.03-.09.1-.06.36l.13.16c-.38.32-.59.3-.73.85l.25.27c-.62.09-1.21.43-1.84.52-1.04.15-1.98-.5-2.54-1.47.17-.29-.35-1-.39-1.25l-.21.03c.1-.8-.22-1.54.3-2.4l-.21.03c.27-1.09.12-2.11.88-2.75-.32-.74.44-1.37.79-1.95.34-.57.72-.89,1.56-1.01.45.2,1.39.85,1.5,1.62-.62.09-1.43-1.11-2.15-.22ZM36.28,69.19c-.17.29-.1.54-.06.79l.28.22-.17.29c.21-.03.24.18.11.51-.21.03.04.26.11.51q.04.26-.17.29l.24.23c-.21.03-.14.28.11.51-.3.61-.23.86.08,1.3,0,0-.2.07-.17.28,0,0,.18.24.32.48-.23-.1-.08.4-.34.35.04.26.24.19.27.44l-.33.4c-.2.07.55.62.45,1.2l.04.26.24.18-.13.32c.52.41-.27.87.52,1.46l-.34.35c.62.13-.22.91.52.93-.33.13-.26.39-.23.6l.14-.02c-.13.1-.03.57.21.75l-.21.03c-.1.54.45,1.2.08,1.56l-.09.58.48.15c-.37.36-.93-.31-1.3.05l-.89-.31c.41-.1-.07-.25-.11-.51l.13-.32c-.24-.18-.35-.69-.79-.85.13-.33.61-.18.3-.61l-.24-.23h.21s.2-.1.2-.1c-.48-.15-.18-.76-.55-.66v-.22s-.11-.29-.11-.29l.14-.28q-.24-.23-.11-.51l.21-.03c-.07-.25-.28-.22-.28-.22-.04-.26-.11-.51-.32-.48.38-.32.13-.54.03-1.05-.28-.22.21-.03.34-.35l-.2.07c-.14-.76-.22-1.28-.19-2.11-.2.07-.07-.51-.35-.69-.11-.51.58-.39.44-.89-.32-.48-.86-.1-1.06-.02-1.09.77-2.32,1.07-3.41,2.14-.73-.38-1.06,1.29-1.48.04l-.82.2c.55-.38.12-1.37.81-1.25.16-1.11,1.74-.68,1.98-1.76.62-.13,1.06-.02,1.43-.38.86.05,1.58-.62,2.16-1.01.13-.32-.14-.72.23-.86-.17.02-.21.03-.37.1-.11-.51.64-.96-.05-1.35l.42-.06c-.07-.25-.49-.19-.52-.45l.51-.64c-.41.1-.24-.18-.55-.4-.07-.51.34-.61.68-.93.52.41.96.52,1.51.92.11.51-.77,1.55.05,1.35ZM38.31,83.58s.04.26-.17.33l-.04-.26.2-.07Z"/><path class="cls-1" d="M43.41,61.68c-.17.02-.55.08-.66.62-.69.62-1.63.75-2.25,1.63l-1.56,1.01c-.59-.18-.79,1.16-1.63.49-.04-.26.27-.83.2-1.34l4.11-2.94c.73-.1,1.56-1.01,2.6-.37.32,1-.76.11-.83.9ZM53.54,59.24c-.14.54-.62.09-.34.57-.24-.23-.42.06-.62.09.04.26-.14.54-.34.57,0,0-.45-.2-.59.34l.21-.03c-.55.6-1.21.43-1.52,1.26-.17.29-.04.44-.42.76.02.39-.09.58.06.91-.11,1.24-.17,1.29-.14,1.55-.13.1.01.35.05.6-.17.29-.13.54-.06,1.06.21-.03,0,.44.2.41l-.17.29.03.48-.13.33.24.23-.17.29c2.43.7,3.87-2.65,6.34-1.68,0,0-.34.57-.55.6l.24.23.21-.03-.17.29c-.21.03-.59.34-.8.37-.42.06-.53.73-.95.79-.62.09-.98.58-1.4.63l-.17.29c-.68.45-1.23.57-1.76.82l-.62.09-.22-.06h-.21c-.21.02-.24-.24-.24-.24-.07-.21-.1-.2-.2-.41l-.39-.51c-.24-.23-.11-.77-.49-.46-.17.29.07.51-.55.6-.14.54-.31.83-.69,1.15-.87-.14-.69,1.15-1.31,1.23l-.15.15c-.97.66-1.08,1.16-2.12,1.3l-.21.03c.04.26.28.48.49.45-.17.29-.83.12-.97.66-.8.37-1.67.24-2.5.35-.11-.77.44-1.37-.25-1.8v-.57s.1-.23.1-.23c-.11-.77-.5-2.03-.02-3.14-.45-.2-.28-.48-.32-.74l.17-.29c-.21.03-.04-.26-.07-.51,0,0,.21-.73.27-1.09-.32-.74,0-1.57.3-2.4.17-.29.28.48.49.45l-.03.27s.06-.05.21-.03l-.14.54.24.23-.17.29s.1.2.14.5l-.03.79c-.38.32-.24.82-.41,1.11,0,0,.04.26.21-.03.28.48-.1.8-.27,1.09,0,0,.24.23.45.2-.76.63.32.74,0,1.57l.07.51c.04.26.39.78.6.75,1.63-.49,2.15-1.31,3.23-2.16.59-.35,1.1-1.2,1.76-1.04.1-.8,1.8-.78,1.62-2.06.38-.31-.18-1.28.2-1.6-.15-1.03.13-2.11.43-2.94l.17-.29c-.32-.74-.62.09-1.04.15-.34.57-1.35.98-2.01.81-.24-.23-1.11-.37-.81-1.2.31-.83,1.21-.43,1.28-1.49,2.04-.55,3.46-2.59,5.33-2.85.37-.1.95-.05,1.08.11-.17.29.28.48.32.74ZM60.11,57.27l-.17.28c.49.24.33.83.82,1.02-.21.03-.2.34-.44.37.49.19.53.49.57.75.04.3-.41.36-.41.63.04.3.29.27.49.24.08.56-.08,1.15.4,1.34l-.2.55c.24-.04.24.23.29.53l-.21.29.17.41-.05.88.5.54s-.25-.27-.46.02c.25.27.5.28.29.53l.33.57s-.25,0-.45.33c.21-.03.24.23.53.49l-.24.03.28.22-.2.33.24.23-.41.36c.24.23.49.19.49.19l-.2.34c.5.28.08.82.4,1.34l.04.3c.26.31-.21.29-.44.63-.37.62-.7-.47-1.12.11,0,0,.3.09.49.23-.57.21-.46.02-.74-.2,0,0,.24-.03.23-.34l-.73-.16.2-.33c-.24.03-.27-.18-.46-.24.17-.02.14-.28.17-.55h-.25c.25,0-.08-.57.17-.56-.29-.31-.37-.87-.37-1.13l.21-.29-.54-.54.42-.28-.47-.28c.63-.31-.16-1.37.26-1.7l-.4-1.56-.2-.63.17-.81c-.16-.11-.24-.45-.5-.28-.49.29-1.04.41-1.39.9-.9.13-1.49,1-2.19,1.05-.24.03-1.07.68-1.24,1.27-.45.06-.9-.14-1.44-.71,2.03-2.17,3.05-2.44,5.69-3.56.21-.03.21.23.66.17v-.26s-.25-.27-.25-.27c.3-.39-.33-2.36-.17-2.68.26.05.25-.25.25-.25-.74-.24-.37-.87-.38-1.43.63-.31,1.37-.06,1.66.73.04.3.32.52.3.83ZM55.59,74.02c.28.48-.8.38-.48,1.12.21-.03-.14.54.32.74l-.12.41.04.52c-.11.45-.14.28-.08.93l.16.37.09.38c.32.74.4,1.08.89,1.53,2.12-.04,3.7-1.13,5.25-2.14,1-.4,1.83-2.09,3.22-1.24-.21.03-.17.29-.17.29,0,0,.04.26.24.23,0,0-.04-.26.17-.29.24.23-.31.83.28.48-.44,1.37-1.63.49-1.86,1.84-.83.12-.93.92-1.8.78.04.26.07.03.11.29l-.04.22c-.38.32-.66-.17-1.08-.11-.55.6-1.56,1.01-1.76,1.04-.04-.26.21-.03.17-.29-.49-.46-.76.63-1.04.15l-.83.12c-.49-.46-.76.63-1.25.18-.38-.21-.56-.71-1.15-.62-.45-.2-.32-.74-.39-1.26.21-.03.17-.29.17-.29-.24-.23-.42.06-.42.06l-.12-1.08.35-.27c-.07-.51-.9-.39-.6-1.22.21-.03.42-.06.38-.32-.66-.17-.15-1.03-.18-1.28.13-.54.27-1.09.61-1.66l.06-.36c-.49-.46.22-.73.14-1.24.42-.06.7.47,1.19.92l-.49,1.07Z"/><path class="cls-1" d="M74.4,53.22c.45.2.7.43.94.65l.21-.03c-.34.57-.93.92-1.07,1.46l.45.2-.62.09c.04.26.41.42.63.43-.72.15.14.77-.41,1.11-.17.29-.34.57-.1.8.04.26.21-.03.21-.03.04.26-.59.35-.31.83-.45-.2-.59.34-.8.37q.24.23.28.48c-.32-.74-.38.32-.59.34.24.23.21-.03.42-.06-.17.29-.51.86-.2,1.6-.38.32-.34.57-.51.86l-.34.57.28.48s-.21.03-.38.32l.45.2-.34.57c1.91,0,3.55-3.38,5.41-.77,0,0-.17.29.07.51q-.21.03-.38.32l.21.23c-.24-.18-.34.31-.55.34.49.46.32.74.43,1.51-.8.37-.24,1.34-.54,2.17l.07.51c-.45-.2-.17.29-.38.31l.45.2c-.38.32-.72.89-.89,1.18-.17.29.07.51-.14.54l.49.46c-.45-.2-.38.32-.38.32-.17.29.04.26.07.51-.17.29-.76.63-1.1,1.21.42-.06.62-.09.7.42s-.42.06-.34.57c1.67-.24,2.94-1.73,4.57-2.22.62-.09,1.25-.18,1.95.25-.83.12-.06,1.06-.93.92-.14.54-.83.12-.76.63-1.59.75-3.39,1.53-4.7,2.76-.8.37-1.81-.79-2.53.09-.21.03-.38.32-.59.35.14-.54.55-.6.27-1.09.93-.92.71-2.46,1.23-3.32.1-.8.2-1.6.54-2.17-.04-.26.17-.29.14-.54-.32-.74.44-1.37.33-2.14-.07-.51.27-1.09.2-1.6-.04-.26.38-.32.1-.8-.07-.51.55-.6.27-1.09-.53-.71-.83.12-1.25.18-.38.32-.62.09-1,.4l.24.23c-.45-.2-.62.09-.59.34l-.21.03.17-.29c-.04-.26-.49-.45-.66-.17l.04.26.24.23c-.77.28-1.05.32-1.04.15.14-.54.45.2.59-.34-.24-.23-.49-.46-.7-.43-.42.06-.72.89-1.17.69l.34-.57-.53-.71c.59-.35.03-1.31.72-.89.38-.32-.28-.48-.32-.74.38-.32.31-.83.72-.89l-.24-.23.17-.29c-.21.03-.24-.23-.04-.26.72-.89.3-2.4,1.27-3.06l-.04-.26-.21.03.17-.29-.04-.26.38-.32c-.21.03-.28-.48-.11-.77.24.23.21-.03.42-.06q-.24-.23-.07-.51c.42-.06.59-.34.76-.63-.35-1-1.08-.11-1.81-.79-.42.06-.8.38-.76.63l-.24.08c-.24-.23-.22-.27-.25-.53-.17.29-.34.57-.59.35.07.51-.1.8.39,1.25-.66-.17-.8.37-1.46.21l.28.48c-.21.03-.34.57-.76.63l.7.42-.34.57c.24.23.45.2.45.2-.17.29-.45.06-.41.32l.28.48.07.25c-.17.29-.42.06-.34.57,0,0,.42-.06.66.17-.34.57-.83.12-1.21.43.28.48,1.08.11.98.91,0,0,.21-.03.45.2-.21.03-.83.12-.76.63-.1.8.7.43.77.94-.24-.23-.7-.43-.87-.14l.04.26.21-.03q-.17.29-.62.09c.31-.83-1.04.15-.73-.68-.21.03-.09-.42-.25-.49.2-.07.31-.31.1-.54l-.21.03c-.04-.26.17-.29.13-.54-.04-.26-.24-.23-.24-.23.17-.29-.11-.77.06-1.06-.24-.23-.45-.2-.28-.49,0,0,.17-.28.13-.54-.45-.2-.24-.23-.32-.74.21-.03-.04-.26.17-.29-.52-.71-.63-1.48-.74-2.25.34-.57.66-.57,1.25-.92l.06-.31.21-.03.2.15c.21-.03.43-.23.71.25,1.48-1.52,3.15-1.76,5.16-2.56.42-.06,1.67-.24,1.32.34-.21.03-.7-.43-1.08-.11ZM67.4,56.3l-.1.32c.04.26.17.19.17.19.17-.29.83-.12.97-.66-.28-.48-.62.09-1.04.15ZM68.72,56.12q.21-.03.24.23c.42-.06.9.4,1.21-.43-.62.09-1.08-.11-1.46.21ZM69.02,64.72l.21-.03.49.46-.7-.43ZM70.45,65.83l-.17.29s-.04-.26.14-.54l.04.26ZM73.47,54.66c-.42.02-1.11-.59-1.18.17l1.18-.17Z"/><path class="cls-1" d="M98.05,64.38l.21.23c-1.24,0-1.83,1.31-3.06,1.61-.43.23-1.03.49-1.41,1.03-.85,0-1.23.52-1.65,1.06-1.83,1.05-3.67,1.83-5.28,3.15-.81.25-1.44.29-2.04.86l-.64-.04c1.69-3.08,4.86-3.39,7.25-5.52,2.04-1.29,3.87-2.64,6.34-3.21,0-.26.22.06.43.03.21.01.32.26.46.5l-.59.3ZM92.23,51.23c-.14.76-.99,1.54-.95,2.06.04.52-.59,1.09-.51,1.86-.18.24-.57.74-.77,1.29.04.52-.38.8-.14,1.02.88,1.01,2.16,1,3.26,1.77.88.49,2.12.75,2.66,2.03l.03.48c.04.26-.2.29-.2.29l-.21.03-.22-.27c.01.35,0,.26,0,.26-.88-.75-3-.71-4.1-1.47-.21-.01-.43-.03-.46-.28-.6-.22-1.52-1.27-1.87-.22-.73,1.85-.83,3.87-1.35,5.74-.18.5.25,1.01-.17,1.03-.43.24-.42-.46-.6-.53.53-.25-.11-.77-.11-1.03.17-.55-.25-.79.35-1.01,0-.26-.04-.52-.25-.53h-.21s.43-.25.43-.25c-.03-.21-.07-.47-.21-.49.17-.07.14-.28.14-.28.03-.27-.21-.49,0-.79l.38-.27c-.21-.23-.25-.49-.25-.75l.63-.57c-.25-.49-.46-.24-.28-1.01.21-.03.42-.02.39-.27-.21-.01-.22-.28,0-.48.17-.29.39-.27.59-.3-1.1-.76.56-1.3.3-2.36.39-.49.77-1.55,1.13-2.3.13-1.33,1.58-1.36,2.18-2.36l.42-.02ZM91.03,71.79l.21-.03-.21.55h-.21s-.17.27-.17.27q.21.23.42.2c.04.26-.17.29-.38.54.42-.02.25.53.46.5-.17.81-.38,1.06-.77,1.55l-.17.29h.64c-.21.51.22.8-.39,1.01.43.03.42.25.46.5-.17.81.26,1.36.34,2.14-.18.2.42.73.07,1.21.89.79.97,2.09,1.64,2.87-1.06.54-2.21-.34-2.79-.74.38-.27,1.06-.02,1.02-.8-.46-.5-.84.29-1.27-.21l.17-.29c0-.26-.21.03-.43-.29.22.06.43.03.39-.23-.21-.23-.42-.24-.43-.77h.21c-.04-.51-.25-.52-.29-.78l.25.27.18-.24c-.43-.29-.85-.27-.89-.79.17-.29.43.03.39-.23.03-.27-.4-.29-.43-.55,0,0,.25.23.43.03-.22-.06-.43-.29-.64-.3.61-.22.1-1.02.53-.99.2-.82-.26-1.06-.08-1.82q.21-.03.39-.27c-.18-.24-.39-.25-.21-.49l.21-.03c-.25-.75.56-1.83,1.12-2.6.21.01.56-.78,1.03-.49-.43-.03-.39.75-.77,1.03ZM98.68,68.83l.21.23c0,.26-.63.31-.2.55.25.49-.15.2.07.78h-.21c.43.75-.13,1.8.36,2.55,0,0-.04.22-.2.29.18.02.22.28.21.49-.43-.03.04.26.07.77l-.17.55c.25.75-.11,1.76.11,2.56h.21c.42-.26.75-.92.98-1.3l.65-.92c.67-1.01,1.34-1.8,2.19-2.27l.24.23-.21.03c-.21.25,0,.52,0,.78q-.22-.01-.39.23h.21s-.6.54-.6.54l.21.23c-.63.05-.17.81-.8.81l.43.25c-.17.29-.42.02-.6.3l.21.23c-.37.66-.37.62-.76,1.64-.43.5-.81,1.03-.77,1.81-.17.77-1.62,1.58-.91,2.57-.42.28.08,1.04-.34,1.32l.25.27c-.18.51.25,1.27-.35,1.53.22.28-.17.81.26,1.06-.43.24.04.78-.13,1.29.04.52-.98,1.06-.32,1.79l-.17.55.24.23c-.21.03-.42.02-.46.28.04.26.25.27.25.53-.42.02-.77,1.55-1.62,1.06.25.23-.17.77.04,1.04l-1.23.26.38-.53-.43-.25c-.04-.52.21-.29.17-.55l-.67-.47.2-.29-.24-.23c.21-.03-.18-.28.03-.27l-.08-1.04c.17-.29-.25-.27-.04-.52l.17-.29c-.63-.74.13-1.81.09-2.85.35-.75.53-1.52.91-2.31.13-.8.56-1.56.91-2.36q.21.01.42-.28c-.63.05-.04-.52-.04-.78.21.01.39-.23.35-.75-.43-.03-.21-.27-.43-.29l.28-.52-.02-.39c-.25-.27-.33-.34-.55-.62-.28-.75.35-.75.56-1.26-.21-.01-.43-.29-.64-.3.81-.51-.53-1.28.53-1.78-.21-.01-.42.02-.42.02l.17-.55c-.21.03-.25-.49-.25-.75l.21-.03c-.67-.25-.03-.74-.25-.75-.11-1.29-.65-3.36.82-4.18.39-.23.52-1.3,1.2-.78.24.23-.38.27-.35.79ZM97.14,86.74c-.43.5-.56,1.26-.53,1.78-.6.26.08,1.3-.34,1.58l.24.23c-.42.28.25.53.25.79.42-.02.38-.8.59-.83l-.25-.49s-.04-.26.17-.29c0-.52.22-.47-.04-1,0-.26-.04-.52.18-.5l.17-.29-.25-.49c0-.52.42-.8.6-1.05-.68-1.04-.81.55-.81.55Z"/><path class="cls-1" d="M103.99,50.94c-.8.11-1.65-.42-2.08.29-.47.42-.61,1.4-.05,1.67.89.53.79,1.85,1.2,2.75l.05.34c.33.61.7,1.21.56,2.19-.01,1.66-1.24,2.49-2.48,2.97-.61-.57-1.51.56-1.97-.68-.05-.34-.33-.61-.38-.95l-.04-.3c-.05-.34.15-.68-.14-.98-.16-2.9,1.03-5.69,2.6-7.88.62-1.09,1.94-1.28,2.69.27l.04.3ZM101.66,55.2c-.28-.26-.18-1.28-.7-1.21-.43.72-.86,1.43-.77,2.07-.62,1.09.03,1.96-.4,2.68.7,1.21,1.04-.15,1.76-.56.23-.38-.14-.99.38-1.06l-.27-1.93ZM111.7,44.91c-.13.33-.37.1-.27.61.3-.35.76.16.84.67,0,0,.04.26-.14.24.11.51.46.46.33,1.05l-.11.23c.35-.05-.1.54.29.83l-.18-.02c.38.21.35,1,.39,1.25l-.35.31c.59.18-.23.86.53.71l.04,1.04-.24.03c-.21.03.04.26.04.52l.23.1-.08.19c.04.26.14.24.31.17l-.13.33-.18-.02-.14.28c.59.44-.02,1.1.61,1.53-.18.24-.07.75-.03,1.01.04.3-.34.35-.1.54l.18.02c.15,1.03.43,1.51-.01,2.4l.17-.07c.42.2-.44.63.18,1.02l-.51.38c.28.48.55-.12.59.13l-.44.89c.17-.03.38-.1.38-.1.07.25-.09.58-.27.61l.21.23q-.28.3-.73.1c-.2-.19.07-.75-.31-.7l-.17.02c.03-1.05-.6-1.44-.57-2.54l-.2-.19c.27-.61-.4-1.34-.33-2.09-.66-.69.37-1.15-.25-1.54-.51-.85,0-.57.06-.79.09-.36-.46-.5-.5-.76h.39c-.42-.26.1-.59-.39-1.05,0-.26-.04-.52.11-.76,0,0-.43-.24-.29-.53l.18-.24c-.07-.47,0-.7-.4-2.35.24-.03.3-.61.48-.63l-.35.05c.02-.39.22-.16.07-.53l-.17-.24c-.07-.21.17-.02.1-.28l-.42-.47c.11-.23.28-.3.48-.59-.28-.48-.69.62-.59-.18.18.02.11-.23.28-.56-.04-.26-.24-.19-.42-.2l.11-.19.37-.14c-.07-.51-.34.09-.41-.42.48-.37,1,.3,1.59.47l.2.19Z"/><path class="cls-1" d="M126.38,39.07c-.42.32-.88.52-1.34.76-.44.15-.86.43-1.3.53-2.25,1.37-4.69,2.1-6.98,3.43-.49-.24-.86.43-1.16-.19.38-.8,1.86-1.35,2.65-2.03,1.9-.79,3.53-1.81,5.26-2.53,1.42-.72,2.72-1.04,4.16-.37-.42.28-.78.2-1.29.4ZM123.47,56.52c.97-.36,2.85-1.1,4.19-1.38,1.71-.68,2.79-1.01,3.24-.59-.11.93-.65,1.18-1.01,1.36-.08.45-.58.91-.66,1.32l.24.23-.55.6c.24.23.28.48.07.51l-.34.57c.45.2-.34.57.11.77l-.55.6c.09.38.3.83.15,1.03l-.62.09c.61.35-.28,1,0,1.57.04.26-.59.34-.27,1.09q-.21.03-.17.29c.21-.03-.8.37.07.51-.42.06-.55.6-.48,1.07-.09-.16.01.83-.26,1.13.07.51.45.2.73.68.57-.21,2.12-1,2.73-1.48,1.5-1.17,3.19-1.5,5.09-1.51l.04.26-.59.35c-.04-.26-.24-.23-.24-.23l-.17.29.21-.03c-.13.54-.55.6-.48,1.12q-.24-.23-.45-.2l-.38.32.66.17c-1.25.18-1.94,1.32-3.18,1.5l-.8.38-1.14.73-.21.03-1.7-.02-.21.03c-.32-.74-1.04.15-1.53-.31l-.42.06c.17-.29-.04-.26-.04-.26l.17-.29c-.24-.23-.11-.77-.53-.71.41-1.63.85-3,1.29-4.38-.32-.74.27-1.09.16-1.86.34-.57.48-1.12.58-1.92.38-.32.1-.8.23-1.34.17-.29.59-.34.73-.89-.39-.03-.43-.29-.36-.56-.51.16-1.03.23-1.49.25-.45.33-.7.32-.86.91-.95,0-1.87.05-2.53.4l.46.24c-.22-.01-.87.34-1.16.03l-.9.39c-.48.33-1.11.94-1.56,1.49.5.02.04.3.04.3l-.4.19.05-.18c0-.3-.15-.28-.15-.28l-.17.02c-.53-.23-.99-.52-1.45-.49.2-.6,1.07-1.2,1.49-1.48,2.02-1.25,1.72-.85,3.71-2.05l1.56-.44ZM127.07,49.19c-.48.07-1.1.46-1.77.51-.58.87-1.92.45-2.74,1.35-1,.71-2.17,1.66-3.61,1.25l-.04-.26-.41.32-.28-.22c.03-.31.48-.33.41-.58l-.28-.26c.03-.31.28-.3.2-.55-.32-.52.23-1.39-.03-1.96.8-2.56.84-5.84,3.44-6.69l.21-.03c-.13.85-.99,1.23-.84,2.04q-.25,0-.49.29c.71.25-.17.33.12.81l-.51.9.22.28c-.21.29-.26,1.13-.39,1.98l.28.48q-.21.03-.24-.23s-.28-.26-.25,0c.04,0,.3,1.35.2,1.63-.42.06.28.26-.14.54,1.33.16,2.25-1.36,3.78-1.8.38-.54,1.26-.35,1.62-1.02,1.32-.41,2.4-.52,3.52-.37.49.24.07.51-.09.84-.63.31-.29.17-.91.57l-.97.18Z"/></g></svg>